<svg xmlns="http://www.w3.org/2000/svg" width="720" height="520" viewBox="0 0 720 520" fill="none">
  <defs>
    <linearGradient id="g1" x1="96" y1="48" x2="664" y2="472" gradientUnits="userSpaceOnUse">
      <stop stop-color="#7c3aed" stop-opacity="0.95"/>
      <stop offset="1" stop-color="#06b6d4" stop-opacity="0.85"/>
    </linearGradient>
    <linearGradient id="g2" x1="140" y1="120" x2="620" y2="420" gradientUnits="userSpaceOnUse">
      <stop stop-color="#22c55e" stop-opacity="0.35"/>
      <stop offset="1" stop-color="#7c3aed" stop-opacity="0.18"/>
    </linearGradient>
    <filter id="shadow" x="-20%" y="-20%" width="140%" height="140%">
      <feDropShadow dx="0" dy="18" stdDeviation="18" flood-color="#000" flood-opacity="0.35"/>
    </filter>
  </defs>

  <!-- blob background -->
  <path d="M142 187C182 93 304 52 405 72C506 92 620 150 642 246C664 342 594 444 490 470C386 496 280 455 206 398C132 341 102 281 142 187Z"
        fill="url(#g2)" />
  <!-- card -->
  <g filter="url(#shadow)">
    <rect x="130" y="86" width="470" height="330" rx="26" fill="rgba(255,255,255,0.06)" stroke="rgba(255,255,255,0.14)"/>
    <rect x="160" y="118" width="280" height="28" rx="14" fill="rgba(255,255,255,0.10)"/>
    <rect x="160" y="164" width="410" height="16" rx="8" fill="rgba(255,255,255,0.10)"/>
    <rect x="160" y="194" width="360" height="16" rx="8" fill="rgba(255,255,255,0.10)"/>
    <rect x="160" y="224" width="390" height="16" rx="8" fill="rgba(255,255,255,0.10)"/>
    <rect x="160" y="264" width="250" height="92" rx="18" fill="rgba(255,255,255,0.06)" stroke="rgba(255,255,255,0.10)"/>
    <rect x="428" y="264" width="142" height="92" rx="18" fill="rgba(255,255,255,0.06)" stroke="rgba(255,255,255,0.10)"/>
    <circle cx="186" cy="310" r="14" fill="url(#g1)"/>
    <rect x="212" y="298" width="170" height="18" rx="9" fill="rgba(255,255,255,0.10)"/>
    <rect x="212" y="326" width="120" height="16" rx="8" fill="rgba(255,255,255,0.08)"/>
    <rect x="452" y="294" width="96" height="18" rx="9" fill="rgba(255,255,255,0.10)"/>
    <rect x="452" y="322" width="76" height="16" rx="8" fill="rgba(255,255,255,0.08)"/>
  </g>

  <!-- pen -->
  <g filter="url(#shadow)">
    <path d="M556 116L638 198C648 208 648 224 638 234L616 256L498 138L520 116C530 106 546 106 556 116Z" fill="url(#g1)"/>
    <path d="M482 152L602 272L438 436L360 458L382 380L482 152Z" fill="rgba(255,255,255,0.14)"/>
    <path d="M360 458L382 380L438 436L360 458Z" fill="#22c55e" fill-opacity="0.7"/>
  </g>
</svg>
